<svg xmlns="http://www.w3.org/2000/svg" xmlns:xlink="http://www.w3.org/1999/xlink" viewBox="0,0,256,256" width="64px" height="64px" fill-rule="nonzero"><defs><linearGradient x1="20.499" y1="13.001" x2="20.499" y2="23.584" gradientUnits="userSpaceOnUse" id="color-1"><stop offset="0" stop-color="#fff500"></stop><stop offset="1" stop-color="#88ff9a"></stop></linearGradient><linearGradient x1="24.511" y1="5.27" x2="26.011" y2="59.777" gradientUnits="userSpaceOnUse" id="color-2"><stop offset="0" stop-color="#0ef589"></stop><stop offset="1" stop-color="#da6ffe"></stop></linearGradient><linearGradient x1="31.109" y1="5.089" x2="32.609" y2="59.595" gradientUnits="userSpaceOnUse" id="color-3"><stop offset="0" stop-color="#0ef589"></stop><stop offset="1" stop-color="#da6ffe"></stop></linearGradient></defs><g fill="none" fill-rule="nonzero" stroke="none" stroke-width="1" stroke-linecap="butt" stroke-linejoin="miter" stroke-miterlimit="10" stroke-dasharray="" stroke-dashoffset="0" font-family="none" font-weight="none" font-size="none" text-anchor="none" style="mix-blend-mode: normal"><g transform="scale(4,4)"><path d="M25,14.001c-5,0 -9.002,3.999 -9.002,8.999h9.002z" fill="url(#color-1)"></path><path d="M24.999,10c-7.169,0 -13.002,5.832 -13.002,13.002c0,7.17 5.833,13.002 13.002,13.002c7.169,0 13.002,-5.832 13.002,-13.002c0,-7.17 -5.833,-13.002 -13.002,-13.002zM24.999,34.003c-6.066,0 -11.001,-4.935 -11.001,-11.001c0,-6.066 4.935,-11.001 11.001,-11.001c6.066,0 11.001,4.935 11.001,11.001c0,6.066 -4.935,11.001 -11.001,11.001z" fill="url(#color-2)"></path><path d="M54.77,48.559l-8.752,-9.864c-0.719,-0.812 -1.995,-0.92 -2.845,-0.243l-2.486,1.973l-4.125,-4.994c3.337,-3.106 5.439,-7.521 5.439,-12.429c0,-9.375 -7.627,-17.002 -17.002,-17.002c-9.375,0 -17.002,7.627 -17.002,17.002c0,9.375 7.627,17.002 17.002,17.002c3.749,0 7.207,-1.234 10.021,-3.298l4.099,4.963l-2.366,1.877c-0.434,0.344 -0.698,0.832 -0.746,1.374c-0.047,0.539 0.127,1.06 0.49,1.469l8.753,9.865c1.022,1.152 2.489,1.746 3.965,1.746c1.169,0 2.344,-0.373 3.307,-1.137l1.607,-1.274c1.08,-0.858 1.739,-2.068 1.856,-3.406c0.115,-1.324 -0.316,-2.611 -1.215,-3.624zM9.997,23.002c0,-8.272 6.73,-15.002 15.002,-15.002c8.272,0 15.002,6.73 15.002,15.002c0,8.272 -6.729,15.002 -15.002,15.002c-8.273,0 -15.002,-6.73 -15.002,-15.002zM48.642,44.666l-6.467,5.133l-1.477,-1.656l6.472,-5.136zM44.418,40.018c0.013,-0.01 0.03,-0.014 0.049,-0.014c0.022,0 0.045,0.007 0.055,0.018l1.319,1.487l-6.476,5.139l-1.368,-1.534zM52.885,54.022l-1.607,1.274c-1.361,1.081 -3.394,0.915 -4.532,-0.369l-3.239,-3.632l6.464,-5.13l3.303,3.722c0.53,0.598 0.785,1.351 0.718,2.122c-0.068,0.786 -0.462,1.501 -1.107,2.013z" fill="url(#color-3)"></path></g></g></svg>